<!-- SVG Icon Sprite — referenced as /icons.svg#icon-name -->
<svg xmlns="http://www.w3.org/2000/svg" style="display:none">

  <!-- Navigation & UI -->
  <symbol id="icon-home" viewBox="0 0 24 24" fill="none" stroke="currentColor" stroke-width="2" stroke-linecap="round" stroke-linejoin="round">
    <path d="M3 9l9-7 9 7v11a2 2 0 0 1-2 2H5a2 2 0 0 1-2-2z"/><polyline points="9 22 9 12 15 12 15 22"/>
  </symbol>

  <symbol id="icon-users" viewBox="0 0 24 24" fill="none" stroke="currentColor" stroke-width="2" stroke-linecap="round" stroke-linejoin="round">
    <path d="M17 21v-2a4 4 0 0 0-4-4H5a4 4 0 0 0-4 4v2"/><circle cx="9" cy="7" r="4"/><path d="M23 21v-2a4 4 0 0 0-3-3.87"/><path d="M16 3.13a4 4 0 0 1 0 7.75"/>
  </symbol>

  <symbol id="icon-user" viewBox="0 0 24 24" fill="none" stroke="currentColor" stroke-width="2" stroke-linecap="round" stroke-linejoin="round">
    <path d="M20 21v-2a4 4 0 0 0-4-4H8a4 4 0 0 0-4 4v2"/><circle cx="12" cy="7" r="4"/>
  </symbol>

  <symbol id="icon-settings" viewBox="0 0 24 24" fill="none" stroke="currentColor" stroke-width="2" stroke-linecap="round" stroke-linejoin="round">
    <circle cx="12" cy="12" r="3"/><path d="M19.4 15a1.65 1.65 0 0 0 .33 1.82l.06.06a2 2 0 0 1-2.83 2.83l-.06-.06a1.65 1.65 0 0 0-1.82-.33 1.65 1.65 0 0 0-1 1.51V21a2 2 0 0 1-4 0v-.09A1.65 1.65 0 0 0 9 19.4a1.65 1.65 0 0 0-1.82.33l-.06.06a2 2 0 0 1-2.83-2.83l.06-.06A1.65 1.65 0 0 0 4.68 15a1.65 1.65 0 0 0-1.51-1H3a2 2 0 0 1 0-4h.09A1.65 1.65 0 0 0 4.6 9a1.65 1.65 0 0 0-.33-1.82l-.06-.06a2 2 0 0 1 2.83-2.83l.06.06A1.65 1.65 0 0 0 9 4.68a1.65 1.65 0 0 0 1-1.51V3a2 2 0 0 1 4 0v.09a1.65 1.65 0 0 0 1 1.51 1.65 1.65 0 0 0 1.82-.33l.06-.06a2 2 0 0 1 2.83 2.83l-.06.06A1.65 1.65 0 0 0 19.4 9a1.65 1.65 0 0 0 1.51 1H21a2 2 0 0 1 0 4h-.09a1.65 1.65 0 0 0-1.51 1z"/>
  </symbol>

  <symbol id="icon-log" viewBox="0 0 24 24" fill="none" stroke="currentColor" stroke-width="2" stroke-linecap="round" stroke-linejoin="round">
    <path d="M14 2H6a2 2 0 0 0-2 2v16a2 2 0 0 0 2 2h12a2 2 0 0 0 2-2V8z"/><polyline points="14 2 14 8 20 8"/><line x1="16" y1="13" x2="8" y2="13"/><line x1="16" y1="17" x2="8" y2="17"/><polyline points="10 9 9 9 8 9"/>
  </symbol>

  <!-- Password / eye -->
  <symbol id="icon-eye" viewBox="0 0 24 24" fill="none" stroke="currentColor" stroke-width="2" stroke-linecap="round" stroke-linejoin="round">
    <path d="M1 12s4-8 11-8 11 8 11 8-4 8-11 8-11-8-11-8z"/><circle cx="12" cy="12" r="3"/>
  </symbol>

  <symbol id="icon-eye-off" viewBox="0 0 24 24" fill="none" stroke="currentColor" stroke-width="2" stroke-linecap="round" stroke-linejoin="round">
    <path d="M17.94 17.94A10.07 10.07 0 0 1 12 20c-7 0-11-8-11-8a18.45 18.45 0 0 1 5.06-5.94M9.9 4.24A9.12 9.12 0 0 1 12 4c7 0 11 8 11 8a18.5 18.5 0 0 1-2.16 3.19m-6.72-1.07a3 3 0 1 1-4.24-4.24"/><line x1="1" y1="1" x2="23" y2="23"/>
  </symbol>

  <!-- Import / Export / Download / Upload -->
  <symbol id="icon-upload" viewBox="0 0 24 24" fill="none" stroke="currentColor" stroke-width="2" stroke-linecap="round" stroke-linejoin="round">
    <polyline points="16 16 12 12 8 16"/><line x1="12" y1="12" x2="12" y2="21"/><path d="M20.39 18.39A5 5 0 0 0 18 9h-1.26A8 8 0 1 0 3 16.3"/>
  </symbol>

  <symbol id="icon-download" viewBox="0 0 24 24" fill="none" stroke="currentColor" stroke-width="2" stroke-linecap="round" stroke-linejoin="round">
    <polyline points="8 17 12 21 16 17"/><line x1="12" y1="12" x2="12" y2="21"/><path d="M20.88 18.09A5 5 0 0 0 18 9h-1.26A8 8 0 1 0 3 16.29"/>
  </symbol>

  <!-- Edit / Pencil -->
  <symbol id="icon-edit" viewBox="0 0 24 24" fill="none" stroke="currentColor" stroke-width="2" stroke-linecap="round" stroke-linejoin="round">
    <path d="M11 4H4a2 2 0 0 0-2 2v14a2 2 0 0 0 2 2h14a2 2 0 0 0 2-2v-7"/><path d="M18.5 2.5a2.121 2.121 0 0 1 3 3L12 15l-4 1 1-4 9.5-9.5z"/>
  </symbol>

  <!-- Trash / Delete -->
  <symbol id="icon-trash" viewBox="0 0 24 24" fill="none" stroke="currentColor" stroke-width="2" stroke-linecap="round" stroke-linejoin="round">
    <polyline points="3 6 5 6 21 6"/><path d="M19 6l-1 14a2 2 0 0 1-2 2H8a2 2 0 0 1-2-2L5 6"/><path d="M10 11v6"/><path d="M14 11v6"/><path d="M9 6V4a1 1 0 0 1 1-1h4a1 1 0 0 1 1 1v2"/>
  </symbol>

  <!-- Plus / Add -->
  <symbol id="icon-plus" viewBox="0 0 24 24" fill="none" stroke="currentColor" stroke-width="2" stroke-linecap="round" stroke-linejoin="round">
    <line x1="12" y1="5" x2="12" y2="19"/><line x1="5" y1="12" x2="19" y2="12"/>
  </symbol>

  <!-- Search -->
  <symbol id="icon-search" viewBox="0 0 24 24" fill="none" stroke="currentColor" stroke-width="2" stroke-linecap="round" stroke-linejoin="round">
    <circle cx="11" cy="11" r="8"/><line x1="21" y1="21" x2="16.65" y2="16.65"/>
  </symbol>

  <!-- Check -->
  <symbol id="icon-check" viewBox="0 0 24 24" fill="none" stroke="currentColor" stroke-width="2.5" stroke-linecap="round" stroke-linejoin="round">
    <polyline points="20 6 9 17 4 12"/>
  </symbol>

  <!-- Warning -->
  <symbol id="icon-warning" viewBox="0 0 24 24" fill="none" stroke="currentColor" stroke-width="2" stroke-linecap="round" stroke-linejoin="round">
    <path d="M10.29 3.86L1.82 18a2 2 0 0 0 1.71 3h16.94a2 2 0 0 0 1.71-3L13.71 3.86a2 2 0 0 0-3.42 0z"/><line x1="12" y1="9" x2="12" y2="13"/><line x1="12" y1="17" x2="12.01" y2="17"/>
  </symbol>

  <!-- Lock / 2FA -->
  <symbol id="icon-lock" viewBox="0 0 24 24" fill="none" stroke="currentColor" stroke-width="2" stroke-linecap="round" stroke-linejoin="round">
    <rect x="3" y="11" width="18" height="11" rx="2" ry="2"/><path d="M7 11V7a5 5 0 0 1 10 0v4"/>
  </symbol>

  <!-- Mail -->
  <symbol id="icon-mail" viewBox="0 0 24 24" fill="none" stroke="currentColor" stroke-width="2" stroke-linecap="round" stroke-linejoin="round">
    <path d="M4 4h16c1.1 0 2 .9 2 2v12c0 1.1-.9 2-2 2H4c-1.1 0-2-.9-2-2V6c0-1.1.9-2 2-2z"/><polyline points="22,6 12,13 2,6"/>
  </symbol>

  <!-- Key / Password -->
  <symbol id="icon-key" viewBox="0 0 24 24" fill="none" stroke="currentColor" stroke-width="2" stroke-linecap="round" stroke-linejoin="round">
    <path d="M21 2l-2 2m-7.61 7.61a5.5 5.5 0 1 1-7.778 7.778 5.5 5.5 0 0 1 7.777-7.777zm0 0L15.5 7.5m0 0l3 3L22 7l-3-3m-3.5 3.5L19 4"/>
  </symbol>

  <!-- Close / X -->
  <symbol id="icon-x" viewBox="0 0 24 24" fill="none" stroke="currentColor" stroke-width="2" stroke-linecap="round" stroke-linejoin="round">
    <line x1="18" y1="6" x2="6" y2="18"/><line x1="6" y1="6" x2="18" y2="18"/>
  </symbol>

  <!-- Arrow back -->
  <symbol id="icon-arrow-left" viewBox="0 0 24 24" fill="none" stroke="currentColor" stroke-width="2" stroke-linecap="round" stroke-linejoin="round">
    <line x1="19" y1="12" x2="5" y2="12"/><polyline points="12 19 5 12 12 5"/>
  </symbol>

  <!-- Shield / Security -->
  <symbol id="icon-shield" viewBox="0 0 24 24" fill="none" stroke="currentColor" stroke-width="2" stroke-linecap="round" stroke-linejoin="round">
    <path d="M12 22s8-4 8-10V5l-8-3-8 3v7c0 6 8 10 8 10z"/>
  </symbol>

  <!-- Database / Backup -->
  <symbol id="icon-database" viewBox="0 0 24 24" fill="none" stroke="currentColor" stroke-width="2" stroke-linecap="round" stroke-linejoin="round">
    <ellipse cx="12" cy="5" rx="9" ry="3"/><path d="M21 12c0 1.66-4 3-9 3s-9-1.34-9-3"/><path d="M3 5v14c0 1.66 4 3 9 3s9-1.34 9-3V5"/>
  </symbol>

  <!-- Image / Photo -->
  <symbol id="icon-image" viewBox="0 0 24 24" fill="none" stroke="currentColor" stroke-width="2" stroke-linecap="round" stroke-linejoin="round">
    <rect x="3" y="3" width="18" height="18" rx="2" ry="2"/><circle cx="8.5" cy="8.5" r="1.5"/><polyline points="21 15 16 10 5 21"/>
  </symbol>

  <!-- Refresh -->
  <symbol id="icon-refresh" viewBox="0 0 24 24" fill="none" stroke="currentColor" stroke-width="2" stroke-linecap="round" stroke-linejoin="round">
    <polyline points="23 4 23 10 17 10"/><polyline points="1 20 1 14 7 14"/><path d="M3.51 9a9 9 0 0 1 14.85-3.36L23 10M1 14l4.64 4.36A9 9 0 0 0 20.49 15"/>
  </symbol>

  <!-- Paperclip / Document attached -->
  <symbol id="icon-paperclip" viewBox="0 0 24 24" fill="none" stroke="currentColor" stroke-width="2" stroke-linecap="round" stroke-linejoin="round">
    <path d="M21.44 11.05l-9.19 9.19a6 6 0 0 1-8.49-8.49l9.19-9.19a4 4 0 0 1 5.66 5.66l-9.2 9.19a2 2 0 0 1-2.83-2.83l8.49-8.48"/>
  </symbol>

  <!-- Box / Stock -->
  <symbol id="icon-box" viewBox="0 0 24 24" fill="none" stroke="currentColor" stroke-width="2" stroke-linecap="round" stroke-linejoin="round">
    <path d="M21 16V8a2 2 0 0 0-1-1.73l-7-4a2 2 0 0 0-2 0l-7 4A2 2 0 0 0 3 8v8a2 2 0 0 0 1 1.73l7 4a2 2 0 0 0 2 0l7-4A2 2 0 0 0 21 16z"/><polyline points="3.27 6.96 12 12.01 20.73 6.96"/><line x1="12" y1="22.08" x2="12" y2="12"/>
  </symbol>

  <!-- Clock / History -->
  <symbol id="icon-clock" viewBox="0 0 24 24" fill="none" stroke="currentColor" stroke-width="2" stroke-linecap="round" stroke-linejoin="round">
    <circle cx="12" cy="12" r="10"/><polyline points="12 6 12 12 16 14"/>
  </symbol>

  <symbol id="icon-location" viewBox="0 0 24 24" fill="none" stroke="currentColor" stroke-width="2" stroke-linecap="round" stroke-linejoin="round">
    <path d="M21 10c0 7-9 13-9 13s-9-6-9-13a9 9 0 0 1 18 0z"/><circle cx="12" cy="10" r="3"/>
  </symbol>

  <symbol id="icon-calendar" viewBox="0 0 24 24" fill="none" stroke="currentColor" stroke-width="2" stroke-linecap="round" stroke-linejoin="round">
    <rect x="3" y="4" width="18" height="18" rx="2" ry="2"/><line x1="16" y1="2" x2="16" y2="6"/><line x1="8" y1="2" x2="8" y2="6"/><line x1="3" y1="10" x2="21" y2="10"/>
  </symbol>

</svg>
